<?xml version="1.0" encoding="UTF-8"?>
<svg xmlns="http://www.w3.org/2000/svg" width="132.004" height="132.004">
  <path d="M66.002 0C48.14 0 45.888.028 38.862.144c-7.02.116-11.82.912-16.012 1.944-4.34 1.688-8.02 3.944-11.684 7.608-3.664 3.664-5.92 7.344-7.608 11.684-1.032 4.192-1.828 8.992-1.944 16.012C1.498 45.888 1.47 48.14 1.47 66.002s.028 20.14.144 27.166c.116 7.02.912 11.82 1.944 16.012 1.688 4.34 3.944 8.02 7.608 11.684 3.664 3.664 7.344 5.92 11.684 7.608 4.192 1.032 8.992 1.828 16.012 1.944 7.026.116 9.278.144 27.14.144s20.14-.028 27.166-.144c7.02-.116 11.82-.912 16.012-1.944 4.34-1.688 8.02-3.944 11.684-7.608 3.664-3.664 5.92-7.344 7.608-11.684 1.032-4.192 1.828-8.992 1.944-16.012.116-7.026.144-9.278.144-27.14s-.028-20.14-.144-27.166c-.116-7.02-.912-11.82-1.944-16.012-1.688-4.34-3.944-8.02-7.608-11.684-3.664-3.664-7.344-5.92-11.684-7.608-4.192-1.032-8.992-1.828-16.012-1.944C86.142.028 83.89 0 66.002 0zm0 11.892c17.52 0 19.592.068 26.506.18 6.392.116 9.864.916 12.172 1.52 3.06 1.188 5.24 2.612 7.532 4.904s3.716 4.472 4.904 7.532c.604 2.308 1.404 5.78 1.52 12.172.112 6.914.18 8.986.18 26.506s-.068 19.592-.18 26.506c-.116 6.392-.916 9.864-1.52 12.172-1.188 3.06-2.612 5.24-4.904 7.532s-4.472 3.716-7.532 4.904c-2.308.604-5.78 1.404-12.172 1.52-6.91.112-8.982.18-26.506.18s-19.596-.068-26.506-.18c-6.392-.116-9.864-.916-12.172-1.52-3.06-1.188-5.24-2.612-7.532-4.904s-3.716-4.472-4.904-7.532c-.604-2.308-1.404-5.78-1.52-12.172-.112-6.914-.18-8.986-.18-26.506s.068-19.592.18-26.506c.116-6.392.916-9.864 1.52-12.172 1.188-3.06 2.612-5.24 4.904-7.532s4.472-3.716 7.532-4.904c2.308-.604 5.78-1.404 12.172-1.52 6.914-.112 8.986-.18 26.506-.18" fill="#100f0d"/>
  <path d="M66.002 88.004c-12.152 0-22.002-9.85-22.002-22.002s9.85-22.002 22.002-22.002 22.002 9.85 22.002 22.002-9.85 22.002-22.002 22.002zm0-55.892c-18.716 0-33.89 15.174-33.89 33.89s15.174 33.89 33.89 33.89 33.89-15.174 33.89-33.89-15.174-33.89-33.89-33.89m43.19-.124c0 4.374-3.546 7.92-7.92 7.92s-7.92-3.546-7.92-7.92 3.546-7.92 7.92-7.92 7.92 3.546 7.92 7.92" fill="#100f0d"/>
</svg> 